<mxfile host="app.diagrams.net" modified="2020-12-10T02:14:36.102Z" agent="5.0 (Macintosh; Intel Mac OS X 10_15_7) AppleWebKit/605.1.15 (KHTML, like Gecko) Version/14.0 Safari/605.1.15" etag="6HkUbU2wz-elnR3sjzJs" version="13.9.7" type="github">
  <diagram id="tAdPeTKJlN7bOHheGdF9" name="Page-1">
    <mxGraphModel dx="2544" dy="2260" grid="1" gridSize="10" guides="1" tooltips="1" connect="1" arrows="1" fold="1" page="1" pageScale="1" pageWidth="850" pageHeight="1100" math="0" shadow="0">
      <root>
        <mxCell id="0" />
        <mxCell id="1" parent="0" />
        <mxCell id="iHuIv27mJ4IeMXVoEYGh-4" value="" style="edgeStyle=orthogonalEdgeStyle;rounded=0;orthogonalLoop=1;jettySize=auto;html=1;" parent="1" source="iHuIv27mJ4IeMXVoEYGh-1" target="iHuIv27mJ4IeMXVoEYGh-3" edge="1">
          <mxGeometry relative="1" as="geometry" />
        </mxCell>
        <mxCell id="iHuIv27mJ4IeMXVoEYGh-1" value="Open dataset" style="rounded=1;whiteSpace=wrap;html=1;" parent="1" vertex="1">
          <mxGeometry y="20" width="120" height="60" as="geometry" />
        </mxCell>
        <mxCell id="iHuIv27mJ4IeMXVoEYGh-6" value="" style="edgeStyle=orthogonalEdgeStyle;rounded=0;orthogonalLoop=1;jettySize=auto;html=1;" parent="1" source="iHuIv27mJ4IeMXVoEYGh-3" target="iHuIv27mJ4IeMXVoEYGh-5" edge="1">
          <mxGeometry relative="1" as="geometry" />
        </mxCell>
        <mxCell id="iHuIv27mJ4IeMXVoEYGh-3" value="Read dataset" style="whiteSpace=wrap;html=1;rounded=1;" parent="1" vertex="1">
          <mxGeometry x="160" y="20" width="120" height="60" as="geometry" />
        </mxCell>
        <mxCell id="iHuIv27mJ4IeMXVoEYGh-5" value="index values" style="whiteSpace=wrap;html=1;rounded=1;" parent="1" vertex="1">
          <mxGeometry x="320" y="20" width="120" height="60" as="geometry" />
        </mxCell>
        <mxCell id="ClTSMR5yh64WsVLCuIec-3" value="" style="edgeStyle=orthogonalEdgeStyle;rounded=0;orthogonalLoop=1;jettySize=auto;html=1;" parent="1" source="iHuIv27mJ4IeMXVoEYGh-17" target="ClTSMR5yh64WsVLCuIec-2" edge="1">
          <mxGeometry relative="1" as="geometry">
            <Array as="points">
              <mxPoint y="140" />
            </Array>
          </mxGeometry>
        </mxCell>
        <mxCell id="ClTSMR5yh64WsVLCuIec-95" style="edgeStyle=orthogonalEdgeStyle;rounded=0;orthogonalLoop=1;jettySize=auto;html=1;exitX=0;exitY=0.5;exitDx=0;exitDy=0;entryX=1;entryY=0.5;entryDx=0;entryDy=0;" parent="1" source="iHuIv27mJ4IeMXVoEYGh-17" target="ClTSMR5yh64WsVLCuIec-42" edge="1">
          <mxGeometry relative="1" as="geometry">
            <Array as="points">
              <mxPoint x="758" y="200" />
            </Array>
          </mxGeometry>
        </mxCell>
        <mxCell id="iHuIv27mJ4IeMXVoEYGh-17" value="User function selection [county, state]" style="whiteSpace=wrap;html=1;rounded=1;" parent="1" vertex="1">
          <mxGeometry x="757.5" y="130" width="85" height="130" as="geometry" />
        </mxCell>
        <mxCell id="iHuIv27mJ4IeMXVoEYGh-22" value="cases() [days, months]" style="whiteSpace=wrap;html=1;rounded=1;" parent="1" vertex="1">
          <mxGeometry x="-380" y="310" width="260" height="60" as="geometry" />
        </mxCell>
        <mxCell id="djKttDt-YxFd_NFeAkNs-44" value="" style="edgeStyle=orthogonalEdgeStyle;rounded=0;orthogonalLoop=1;jettySize=auto;html=1;" parent="1" source="iHuIv27mJ4IeMXVoEYGh-24" target="ClTSMR5yh64WsVLCuIec-14" edge="1">
          <mxGeometry relative="1" as="geometry">
            <mxPoint x="190" y="420" as="targetPoint" />
          </mxGeometry>
        </mxCell>
        <mxCell id="djKttDt-YxFd_NFeAkNs-45" value="" style="edgeStyle=orthogonalEdgeStyle;rounded=0;orthogonalLoop=1;jettySize=auto;html=1;" parent="1" source="iHuIv27mJ4IeMXVoEYGh-24" target="ClTSMR5yh64WsVLCuIec-7" edge="1">
          <mxGeometry relative="1" as="geometry">
            <mxPoint x="75" y="420" as="targetPoint" />
          </mxGeometry>
        </mxCell>
        <mxCell id="iHuIv27mJ4IeMXVoEYGh-24" value="&lt;div&gt;deaths() [days, months]&lt;br&gt;&lt;/div&gt;" style="whiteSpace=wrap;html=1;rounded=1;" parent="1" vertex="1">
          <mxGeometry x="-60" y="310" width="230" height="60" as="geometry" />
        </mxCell>
        <mxCell id="Fl7NyhwMVP9BRSrlcS8B-10" value="" style="edgeStyle=orthogonalEdgeStyle;rounded=0;orthogonalLoop=1;jettySize=auto;html=1;" parent="1" target="Fl7NyhwMVP9BRSrlcS8B-9" edge="1">
          <mxGeometry relative="1" as="geometry">
            <mxPoint x="-350" y="490" as="sourcePoint" />
          </mxGeometry>
        </mxCell>
        <mxCell id="iHuIv27mJ4IeMXVoEYGh-34" value="sort(days)" style="rhombus;whiteSpace=wrap;html=1;rounded=1;" parent="1" vertex="1">
          <mxGeometry x="-390" y="420" width="80" height="80" as="geometry" />
        </mxCell>
        <mxCell id="Fl7NyhwMVP9BRSrlcS8B-25" value="" style="edgeStyle=orthogonalEdgeStyle;rounded=0;orthogonalLoop=1;jettySize=auto;html=1;" parent="1" source="Fl7NyhwMVP9BRSrlcS8B-9" target="Fl7NyhwMVP9BRSrlcS8B-24" edge="1">
          <mxGeometry relative="1" as="geometry" />
        </mxCell>
        <mxCell id="Fl7NyhwMVP9BRSrlcS8B-9" value="sort case counts by day" style="rhombus;whiteSpace=wrap;html=1;rounded=1;" parent="1" vertex="1">
          <mxGeometry x="-390" y="540" width="80" height="80" as="geometry" />
        </mxCell>
        <mxCell id="Fl7NyhwMVP9BRSrlcS8B-37" value="" style="edgeStyle=orthogonalEdgeStyle;rounded=0;orthogonalLoop=1;jettySize=auto;html=1;" parent="1" source="Fl7NyhwMVP9BRSrlcS8B-24" target="Fl7NyhwMVP9BRSrlcS8B-36" edge="1">
          <mxGeometry relative="1" as="geometry" />
        </mxCell>
        <mxCell id="Fl7NyhwMVP9BRSrlcS8B-24" value="chose graph range" style="whiteSpace=wrap;html=1;rounded=1;" parent="1" vertex="1">
          <mxGeometry x="-380" y="650" width="60" height="50" as="geometry" />
        </mxCell>
        <mxCell id="Fl7NyhwMVP9BRSrlcS8B-36" value="graph selection function[scatterplot, bar graph, line graph]" style="rhombus;whiteSpace=wrap;html=1;rounded=1;" parent="1" vertex="1">
          <mxGeometry x="-430" y="730" width="160" height="110" as="geometry" />
        </mxCell>
        <mxCell id="djKttDt-YxFd_NFeAkNs-17" value="" style="edgeStyle=orthogonalEdgeStyle;rounded=0;orthogonalLoop=1;jettySize=auto;html=1;exitX=0.5;exitY=1;exitDx=0;exitDy=0;" parent="1" source="djKttDt-YxFd_NFeAkNs-18" target="djKttDt-YxFd_NFeAkNs-20" edge="1">
          <mxGeometry relative="1" as="geometry" />
        </mxCell>
        <mxCell id="djKttDt-YxFd_NFeAkNs-18" value="sort(months)" style="rhombus;whiteSpace=wrap;html=1;rounded=1;" parent="1" vertex="1">
          <mxGeometry x="-230" y="420" width="80" height="80" as="geometry" />
        </mxCell>
        <mxCell id="djKttDt-YxFd_NFeAkNs-19" value="" style="edgeStyle=orthogonalEdgeStyle;rounded=0;orthogonalLoop=1;jettySize=auto;html=1;" parent="1" source="djKttDt-YxFd_NFeAkNs-20" target="djKttDt-YxFd_NFeAkNs-22" edge="1">
          <mxGeometry relative="1" as="geometry" />
        </mxCell>
        <mxCell id="djKttDt-YxFd_NFeAkNs-20" value="sort case counts by month" style="rhombus;whiteSpace=wrap;html=1;rounded=1;" parent="1" vertex="1">
          <mxGeometry x="-230" y="540" width="80" height="80" as="geometry" />
        </mxCell>
        <mxCell id="djKttDt-YxFd_NFeAkNs-22" value="chose graph range" style="whiteSpace=wrap;html=1;rounded=1;" parent="1" vertex="1">
          <mxGeometry x="-220" y="650" width="60" height="50" as="geometry" />
        </mxCell>
        <mxCell id="ClTSMR5yh64WsVLCuIec-4" value="" style="edgeStyle=orthogonalEdgeStyle;rounded=0;orthogonalLoop=1;jettySize=auto;html=1;" parent="1" source="ClTSMR5yh64WsVLCuIec-2" target="iHuIv27mJ4IeMXVoEYGh-22" edge="1">
          <mxGeometry relative="1" as="geometry" />
        </mxCell>
        <mxCell id="ClTSMR5yh64WsVLCuIec-5" style="edgeStyle=orthogonalEdgeStyle;rounded=0;orthogonalLoop=1;jettySize=auto;html=1;" parent="1" source="ClTSMR5yh64WsVLCuIec-2" target="iHuIv27mJ4IeMXVoEYGh-24" edge="1">
          <mxGeometry relative="1" as="geometry" />
        </mxCell>
        <mxCell id="ClTSMR5yh64WsVLCuIec-2" value="state() [death, cases]" style="whiteSpace=wrap;html=1;rounded=1;" parent="1" vertex="1">
          <mxGeometry x="-60" y="160" width="120" height="60" as="geometry" />
        </mxCell>
        <mxCell id="ClTSMR5yh64WsVLCuIec-6" value="" style="edgeStyle=orthogonalEdgeStyle;rounded=0;orthogonalLoop=1;jettySize=auto;html=1;exitX=0.5;exitY=1;exitDx=0;exitDy=0;" parent="1" source="ClTSMR5yh64WsVLCuIec-7" target="ClTSMR5yh64WsVLCuIec-9" edge="1">
          <mxGeometry relative="1" as="geometry" />
        </mxCell>
        <mxCell id="ClTSMR5yh64WsVLCuIec-7" value="sort(days)" style="rhombus;whiteSpace=wrap;html=1;rounded=1;" parent="1" vertex="1">
          <mxGeometry x="-50" y="420" width="80" height="80" as="geometry" />
        </mxCell>
        <mxCell id="ClTSMR5yh64WsVLCuIec-8" value="" style="edgeStyle=orthogonalEdgeStyle;rounded=0;orthogonalLoop=1;jettySize=auto;html=1;" parent="1" source="ClTSMR5yh64WsVLCuIec-9" target="ClTSMR5yh64WsVLCuIec-11" edge="1">
          <mxGeometry relative="1" as="geometry" />
        </mxCell>
        <mxCell id="ClTSMR5yh64WsVLCuIec-9" value="sort case counts by day" style="rhombus;whiteSpace=wrap;html=1;rounded=1;" parent="1" vertex="1">
          <mxGeometry x="-50" y="540" width="80" height="80" as="geometry" />
        </mxCell>
        <mxCell id="ClTSMR5yh64WsVLCuIec-10" value="" style="edgeStyle=orthogonalEdgeStyle;rounded=0;orthogonalLoop=1;jettySize=auto;html=1;" parent="1" source="ClTSMR5yh64WsVLCuIec-11" edge="1">
          <mxGeometry relative="1" as="geometry">
            <mxPoint x="-10" y="730.0000000000002" as="targetPoint" />
          </mxGeometry>
        </mxCell>
        <mxCell id="ClTSMR5yh64WsVLCuIec-11" value="chose graph range" style="whiteSpace=wrap;html=1;rounded=1;" parent="1" vertex="1">
          <mxGeometry x="-40" y="650" width="60" height="50" as="geometry" />
        </mxCell>
        <mxCell id="ClTSMR5yh64WsVLCuIec-13" value="" style="edgeStyle=orthogonalEdgeStyle;rounded=0;orthogonalLoop=1;jettySize=auto;html=1;exitX=0.5;exitY=1;exitDx=0;exitDy=0;" parent="1" source="ClTSMR5yh64WsVLCuIec-14" target="ClTSMR5yh64WsVLCuIec-16" edge="1">
          <mxGeometry relative="1" as="geometry" />
        </mxCell>
        <mxCell id="ClTSMR5yh64WsVLCuIec-14" value="sort(months)" style="rhombus;whiteSpace=wrap;html=1;rounded=1;" parent="1" vertex="1">
          <mxGeometry x="110" y="420" width="80" height="80" as="geometry" />
        </mxCell>
        <mxCell id="ClTSMR5yh64WsVLCuIec-15" value="" style="edgeStyle=orthogonalEdgeStyle;rounded=0;orthogonalLoop=1;jettySize=auto;html=1;" parent="1" source="ClTSMR5yh64WsVLCuIec-16" target="ClTSMR5yh64WsVLCuIec-18" edge="1">
          <mxGeometry relative="1" as="geometry" />
        </mxCell>
        <mxCell id="ClTSMR5yh64WsVLCuIec-16" value="sort case counts by month" style="rhombus;whiteSpace=wrap;html=1;rounded=1;" parent="1" vertex="1">
          <mxGeometry x="110" y="540" width="80" height="80" as="geometry" />
        </mxCell>
        <mxCell id="ClTSMR5yh64WsVLCuIec-17" value="" style="edgeStyle=orthogonalEdgeStyle;rounded=0;orthogonalLoop=1;jettySize=auto;html=1;" parent="1" source="ClTSMR5yh64WsVLCuIec-18" edge="1">
          <mxGeometry relative="1" as="geometry">
            <mxPoint x="150" y="730.0000000000002" as="targetPoint" />
          </mxGeometry>
        </mxCell>
        <mxCell id="ClTSMR5yh64WsVLCuIec-18" value="chose graph range" style="whiteSpace=wrap;html=1;rounded=1;" parent="1" vertex="1">
          <mxGeometry x="120" y="650" width="60" height="50" as="geometry" />
        </mxCell>
        <mxCell id="ClTSMR5yh64WsVLCuIec-20" value="" style="edgeStyle=orthogonalEdgeStyle;rounded=0;orthogonalLoop=1;jettySize=auto;html=1;" parent="1" source="ClTSMR5yh64WsVLCuIec-22" edge="1">
          <mxGeometry relative="1" as="geometry">
            <mxPoint x="327.5" y="420" as="targetPoint" />
          </mxGeometry>
        </mxCell>
        <mxCell id="ClTSMR5yh64WsVLCuIec-21" value="" style="edgeStyle=orthogonalEdgeStyle;rounded=0;orthogonalLoop=1;jettySize=auto;html=1;entryX=0.5;entryY=0;entryDx=0;entryDy=0;" parent="1" source="ClTSMR5yh64WsVLCuIec-22" edge="1" target="ClTSMR5yh64WsVLCuIec-34">
          <mxGeometry relative="1" as="geometry">
            <mxPoint x="447.5" y="420" as="targetPoint" />
          </mxGeometry>
        </mxCell>
        <mxCell id="ClTSMR5yh64WsVLCuIec-22" value="cases() [days, months]" style="whiteSpace=wrap;html=1;rounded=1;" parent="1" vertex="1">
          <mxGeometry x="257.5" y="310" width="260" height="60" as="geometry" />
        </mxCell>
        <mxCell id="ClTSMR5yh64WsVLCuIec-23" value="" style="edgeStyle=orthogonalEdgeStyle;rounded=0;orthogonalLoop=1;jettySize=auto;html=1;" parent="1" source="ClTSMR5yh64WsVLCuIec-25" target="ClTSMR5yh64WsVLCuIec-51" edge="1">
          <mxGeometry relative="1" as="geometry">
            <mxPoint x="707.5" y="420" as="targetPoint" />
          </mxGeometry>
        </mxCell>
        <mxCell id="ClTSMR5yh64WsVLCuIec-24" value="" style="edgeStyle=orthogonalEdgeStyle;rounded=0;orthogonalLoop=1;jettySize=auto;html=1;" parent="1" source="ClTSMR5yh64WsVLCuIec-25" target="ClTSMR5yh64WsVLCuIec-44" edge="1">
          <mxGeometry relative="1" as="geometry">
            <mxPoint x="592.5" y="420" as="targetPoint" />
          </mxGeometry>
        </mxCell>
        <mxCell id="ClTSMR5yh64WsVLCuIec-25" value="&lt;div&gt;deaths() [days, months]&lt;br&gt;&lt;/div&gt;" style="whiteSpace=wrap;html=1;rounded=1;" parent="1" vertex="1">
          <mxGeometry x="570" y="310" width="230" height="60" as="geometry" />
        </mxCell>
        <mxCell id="ClTSMR5yh64WsVLCuIec-26" value="" style="edgeStyle=orthogonalEdgeStyle;rounded=0;orthogonalLoop=1;jettySize=auto;html=1;" parent="1" source="ClTSMR5yh64WsVLCuIec-27" target="ClTSMR5yh64WsVLCuIec-29" edge="1">
          <mxGeometry relative="1" as="geometry" />
        </mxCell>
        <mxCell id="ClTSMR5yh64WsVLCuIec-27" value="sort(days)" style="rhombus;whiteSpace=wrap;html=1;rounded=1;" parent="1" vertex="1">
          <mxGeometry x="287.5" y="420" width="80" height="80" as="geometry" />
        </mxCell>
        <mxCell id="ClTSMR5yh64WsVLCuIec-28" value="" style="edgeStyle=orthogonalEdgeStyle;rounded=0;orthogonalLoop=1;jettySize=auto;html=1;" parent="1" target="ClTSMR5yh64WsVLCuIec-31" edge="1">
          <mxGeometry relative="1" as="geometry">
            <mxPoint x="328" y="610" as="sourcePoint" />
          </mxGeometry>
        </mxCell>
        <mxCell id="ClTSMR5yh64WsVLCuIec-29" value="sort case counts by day" style="rhombus;whiteSpace=wrap;html=1;rounded=1;" parent="1" vertex="1">
          <mxGeometry x="287.5" y="540" width="80" height="80" as="geometry" />
        </mxCell>
        <mxCell id="ClTSMR5yh64WsVLCuIec-30" value="" style="edgeStyle=orthogonalEdgeStyle;rounded=0;orthogonalLoop=1;jettySize=auto;html=1;" parent="1" source="ClTSMR5yh64WsVLCuIec-31" edge="1">
          <mxGeometry relative="1" as="geometry">
            <mxPoint x="327.5" y="730.0000000000002" as="targetPoint" />
          </mxGeometry>
        </mxCell>
        <mxCell id="ClTSMR5yh64WsVLCuIec-31" value="chose graph range" style="whiteSpace=wrap;html=1;rounded=1;" parent="1" vertex="1">
          <mxGeometry x="297.5" y="650" width="60" height="50" as="geometry" />
        </mxCell>
        <mxCell id="ClTSMR5yh64WsVLCuIec-33" value="" style="edgeStyle=orthogonalEdgeStyle;rounded=0;orthogonalLoop=1;jettySize=auto;html=1;" parent="1" source="ClTSMR5yh64WsVLCuIec-34" target="ClTSMR5yh64WsVLCuIec-36" edge="1">
          <mxGeometry relative="1" as="geometry" />
        </mxCell>
        <mxCell id="ClTSMR5yh64WsVLCuIec-34" value="sort(months)" style="rhombus;whiteSpace=wrap;html=1;rounded=1;" parent="1" vertex="1">
          <mxGeometry x="432.5" y="420" width="80" height="80" as="geometry" />
        </mxCell>
        <mxCell id="ClTSMR5yh64WsVLCuIec-35" value="" style="edgeStyle=orthogonalEdgeStyle;rounded=0;orthogonalLoop=1;jettySize=auto;html=1;" parent="1" target="ClTSMR5yh64WsVLCuIec-38" edge="1">
          <mxGeometry relative="1" as="geometry">
            <mxPoint x="472" y="610" as="sourcePoint" />
          </mxGeometry>
        </mxCell>
        <mxCell id="ClTSMR5yh64WsVLCuIec-36" value="sort case counts by month" style="rhombus;whiteSpace=wrap;html=1;rounded=1;" parent="1" vertex="1">
          <mxGeometry x="432.5" y="540" width="80" height="80" as="geometry" />
        </mxCell>
        <mxCell id="ClTSMR5yh64WsVLCuIec-37" value="" style="edgeStyle=orthogonalEdgeStyle;rounded=0;orthogonalLoop=1;jettySize=auto;html=1;entryX=0.5;entryY=0;entryDx=0;entryDy=0;" parent="1" source="ClTSMR5yh64WsVLCuIec-38" target="Nh4_O4x0VNbikzCYafz7-15" edge="1">
          <mxGeometry relative="1" as="geometry">
            <mxPoint x="447.5" y="730.0000000000002" as="targetPoint" />
          </mxGeometry>
        </mxCell>
        <mxCell id="ClTSMR5yh64WsVLCuIec-38" value="chose graph range" style="whiteSpace=wrap;html=1;rounded=1;" parent="1" vertex="1">
          <mxGeometry x="442.5" y="650" width="60" height="50" as="geometry" />
        </mxCell>
        <mxCell id="ClTSMR5yh64WsVLCuIec-40" value="" style="edgeStyle=orthogonalEdgeStyle;rounded=0;orthogonalLoop=1;jettySize=auto;html=1;" parent="1" source="ClTSMR5yh64WsVLCuIec-42" target="ClTSMR5yh64WsVLCuIec-22" edge="1">
          <mxGeometry relative="1" as="geometry" />
        </mxCell>
        <mxCell id="ClTSMR5yh64WsVLCuIec-41" style="edgeStyle=orthogonalEdgeStyle;rounded=0;orthogonalLoop=1;jettySize=auto;html=1;" parent="1" source="ClTSMR5yh64WsVLCuIec-42" target="ClTSMR5yh64WsVLCuIec-25" edge="1">
          <mxGeometry relative="1" as="geometry" />
        </mxCell>
        <mxCell id="ClTSMR5yh64WsVLCuIec-42" value="state() [death, cases]" style="whiteSpace=wrap;html=1;rounded=1;" parent="1" vertex="1">
          <mxGeometry x="457.5" y="170" width="120" height="60" as="geometry" />
        </mxCell>
        <mxCell id="ClTSMR5yh64WsVLCuIec-43" value="" style="edgeStyle=orthogonalEdgeStyle;rounded=0;orthogonalLoop=1;jettySize=auto;html=1;" parent="1" source="ClTSMR5yh64WsVLCuIec-44" target="ClTSMR5yh64WsVLCuIec-46" edge="1">
          <mxGeometry relative="1" as="geometry" />
        </mxCell>
        <mxCell id="ClTSMR5yh64WsVLCuIec-44" value="sort(days)" style="rhombus;whiteSpace=wrap;html=1;rounded=1;" parent="1" vertex="1">
          <mxGeometry x="590" y="420" width="80" height="80" as="geometry" />
        </mxCell>
        <mxCell id="ClTSMR5yh64WsVLCuIec-45" value="" style="edgeStyle=orthogonalEdgeStyle;rounded=0;orthogonalLoop=1;jettySize=auto;html=1;" parent="1" target="ClTSMR5yh64WsVLCuIec-48" edge="1">
          <mxGeometry relative="1" as="geometry">
            <mxPoint x="630" y="610" as="sourcePoint" />
          </mxGeometry>
        </mxCell>
        <mxCell id="ClTSMR5yh64WsVLCuIec-46" value="sort case counts by day" style="rhombus;whiteSpace=wrap;html=1;rounded=1;" parent="1" vertex="1">
          <mxGeometry x="590" y="540" width="80" height="80" as="geometry" />
        </mxCell>
        <mxCell id="ClTSMR5yh64WsVLCuIec-47" value="" style="edgeStyle=orthogonalEdgeStyle;rounded=0;orthogonalLoop=1;jettySize=auto;html=1;entryX=0.5;entryY=0;entryDx=0;entryDy=0;" parent="1" source="ClTSMR5yh64WsVLCuIec-48" target="Nh4_O4x0VNbikzCYafz7-16" edge="1">
          <mxGeometry relative="1" as="geometry">
            <mxPoint x="630.0000000000005" y="720.0000000000007" as="targetPoint" />
          </mxGeometry>
        </mxCell>
        <mxCell id="ClTSMR5yh64WsVLCuIec-48" value="chose graph range" style="whiteSpace=wrap;html=1;rounded=1;" parent="1" vertex="1">
          <mxGeometry x="600" y="650" width="60" height="50" as="geometry" />
        </mxCell>
        <mxCell id="ClTSMR5yh64WsVLCuIec-50" value="" style="edgeStyle=orthogonalEdgeStyle;rounded=0;orthogonalLoop=1;jettySize=auto;html=1;" parent="1" source="ClTSMR5yh64WsVLCuIec-51" target="ClTSMR5yh64WsVLCuIec-53" edge="1">
          <mxGeometry relative="1" as="geometry" />
        </mxCell>
        <mxCell id="ClTSMR5yh64WsVLCuIec-51" value="sort(months)" style="rhombus;whiteSpace=wrap;html=1;rounded=1;" parent="1" vertex="1">
          <mxGeometry x="747.5" y="420" width="80" height="80" as="geometry" />
        </mxCell>
        <mxCell id="ClTSMR5yh64WsVLCuIec-52" value="" style="edgeStyle=orthogonalEdgeStyle;rounded=0;orthogonalLoop=1;jettySize=auto;html=1;" parent="1" source="ClTSMR5yh64WsVLCuIec-53" target="ClTSMR5yh64WsVLCuIec-55" edge="1">
          <mxGeometry relative="1" as="geometry" />
        </mxCell>
        <mxCell id="ClTSMR5yh64WsVLCuIec-53" value="sort case counts by month" style="rhombus;whiteSpace=wrap;html=1;rounded=1;" parent="1" vertex="1">
          <mxGeometry x="747.5" y="540" width="80" height="80" as="geometry" />
        </mxCell>
        <mxCell id="ClTSMR5yh64WsVLCuIec-54" value="" style="edgeStyle=orthogonalEdgeStyle;rounded=0;orthogonalLoop=1;jettySize=auto;html=1;" parent="1" source="ClTSMR5yh64WsVLCuIec-55" edge="1">
          <mxGeometry relative="1" as="geometry">
            <mxPoint x="787.5" y="730.0000000000002" as="targetPoint" />
          </mxGeometry>
        </mxCell>
        <mxCell id="ClTSMR5yh64WsVLCuIec-55" value="chose graph range" style="whiteSpace=wrap;html=1;rounded=1;" parent="1" vertex="1">
          <mxGeometry x="757.5" y="650" width="60" height="50" as="geometry" />
        </mxCell>
        <mxCell id="Nh4_O4x0VNbikzCYafz7-1" value="graph selection function[scatterplot, bar graph, line graph]" style="rhombus;whiteSpace=wrap;html=1;rounded=1;" vertex="1" parent="1">
          <mxGeometry x="-265" y="730" width="150" height="110" as="geometry" />
        </mxCell>
        <mxCell id="Nh4_O4x0VNbikzCYafz7-5" value="" style="endArrow=classic;html=1;exitX=0.5;exitY=1;exitDx=0;exitDy=0;" edge="1" parent="1" source="djKttDt-YxFd_NFeAkNs-22" target="Nh4_O4x0VNbikzCYafz7-1">
          <mxGeometry width="50" height="50" relative="1" as="geometry">
            <mxPoint x="310" y="710" as="sourcePoint" />
            <mxPoint x="360" y="660" as="targetPoint" />
          </mxGeometry>
        </mxCell>
        <mxCell id="Nh4_O4x0VNbikzCYafz7-8" value="graph selection function[scatterplot, bar graph, line graph]" style="rhombus;whiteSpace=wrap;html=1;rounded=1;" vertex="1" parent="1">
          <mxGeometry x="-85" y="730" width="150" height="110" as="geometry" />
        </mxCell>
        <mxCell id="Nh4_O4x0VNbikzCYafz7-9" value="graph selection function[scatterplot, bar graph, line graph]" style="rhombus;whiteSpace=wrap;html=1;rounded=1;" vertex="1" parent="1">
          <mxGeometry x="75" y="730" width="150" height="110" as="geometry" />
        </mxCell>
        <mxCell id="Nh4_O4x0VNbikzCYafz7-12" value="" style="endArrow=classic;html=1;entryX=0.5;entryY=0;entryDx=0;entryDy=0;" edge="1" parent="1" target="iHuIv27mJ4IeMXVoEYGh-17">
          <mxGeometry width="50" height="50" relative="1" as="geometry">
            <mxPoint x="800" y="50" as="sourcePoint" />
            <mxPoint x="720" y="100" as="targetPoint" />
          </mxGeometry>
        </mxCell>
        <mxCell id="Nh4_O4x0VNbikzCYafz7-13" value="graph selection function[scatterplot, bar graph, line graph]" style="rhombus;whiteSpace=wrap;html=1;rounded=1;" vertex="1" parent="1">
          <mxGeometry x="252.5" y="730" width="150" height="110" as="geometry" />
        </mxCell>
        <mxCell id="Nh4_O4x0VNbikzCYafz7-15" value="graph selection function[scatterplot, bar graph, line graph]" style="rhombus;whiteSpace=wrap;html=1;rounded=1;" vertex="1" parent="1">
          <mxGeometry x="397.5" y="730" width="150" height="110" as="geometry" />
        </mxCell>
        <mxCell id="Nh4_O4x0VNbikzCYafz7-16" value="graph selection function[scatterplot, bar graph, line graph]" style="rhombus;whiteSpace=wrap;html=1;rounded=1;" vertex="1" parent="1">
          <mxGeometry x="555" y="730" width="150" height="110" as="geometry" />
        </mxCell>
        <mxCell id="Nh4_O4x0VNbikzCYafz7-18" value="graph selection function[scatterplot, bar graph, line graph]" style="rhombus;whiteSpace=wrap;html=1;rounded=1;" vertex="1" parent="1">
          <mxGeometry x="712.5" y="730" width="150" height="110" as="geometry" />
        </mxCell>
        <mxCell id="Nh4_O4x0VNbikzCYafz7-19" value="" style="endArrow=none;html=1;exitX=0.5;exitY=1;exitDx=0;exitDy=0;" edge="1" parent="1" source="iHuIv27mJ4IeMXVoEYGh-22">
          <mxGeometry width="50" height="50" relative="1" as="geometry">
            <mxPoint x="230" y="510" as="sourcePoint" />
            <mxPoint x="-250" y="390" as="targetPoint" />
          </mxGeometry>
        </mxCell>
        <mxCell id="Nh4_O4x0VNbikzCYafz7-20" value="" style="endArrow=classic;html=1;entryX=0.5;entryY=0;entryDx=0;entryDy=0;" edge="1" parent="1" target="iHuIv27mJ4IeMXVoEYGh-34">
          <mxGeometry width="50" height="50" relative="1" as="geometry">
            <mxPoint x="-350" y="390" as="sourcePoint" />
            <mxPoint x="-280" y="420" as="targetPoint" />
          </mxGeometry>
        </mxCell>
        <mxCell id="Nh4_O4x0VNbikzCYafz7-21" value="" style="endArrow=classic;html=1;entryX=0.5;entryY=0;entryDx=0;entryDy=0;" edge="1" parent="1" target="djKttDt-YxFd_NFeAkNs-18">
          <mxGeometry width="50" height="50" relative="1" as="geometry">
            <mxPoint x="-190" y="390" as="sourcePoint" />
            <mxPoint x="280" y="460" as="targetPoint" />
          </mxGeometry>
        </mxCell>
        <mxCell id="Nh4_O4x0VNbikzCYafz7-23" value="" style="endArrow=none;html=1;" edge="1" parent="1">
          <mxGeometry width="50" height="50" relative="1" as="geometry">
            <mxPoint x="-350" y="390" as="sourcePoint" />
            <mxPoint x="-190" y="390" as="targetPoint" />
          </mxGeometry>
        </mxCell>
        <mxCell id="Nh4_O4x0VNbikzCYafz7-27" value="" style="endArrow=none;html=1;exitX=1;exitY=0.5;exitDx=0;exitDy=0;" edge="1" parent="1" source="iHuIv27mJ4IeMXVoEYGh-5">
          <mxGeometry width="50" height="50" relative="1" as="geometry">
            <mxPoint x="290" y="540" as="sourcePoint" />
            <mxPoint x="800" y="50" as="targetPoint" />
          </mxGeometry>
        </mxCell>
        <mxCell id="Nh4_O4x0VNbikzCYafz7-28" value="START" style="ellipse;whiteSpace=wrap;html=1;" vertex="1" parent="1">
          <mxGeometry y="-100" width="120" height="80" as="geometry" />
        </mxCell>
        <mxCell id="Nh4_O4x0VNbikzCYafz7-30" value="" style="endArrow=classic;html=1;exitX=0.5;exitY=1;exitDx=0;exitDy=0;" edge="1" parent="1" source="Nh4_O4x0VNbikzCYafz7-28" target="iHuIv27mJ4IeMXVoEYGh-1">
          <mxGeometry width="50" height="50" relative="1" as="geometry">
            <mxPoint x="290" y="480" as="sourcePoint" />
            <mxPoint x="340" y="430" as="targetPoint" />
          </mxGeometry>
        </mxCell>
        <mxCell id="Nh4_O4x0VNbikzCYafz7-31" value="" style="endArrow=classic;html=1;exitX=0.5;exitY=1;exitDx=0;exitDy=0;" edge="1" parent="1" source="Fl7NyhwMVP9BRSrlcS8B-36">
          <mxGeometry width="50" height="50" relative="1" as="geometry">
            <mxPoint x="290" y="730" as="sourcePoint" />
            <mxPoint x="-350" y="890" as="targetPoint" />
          </mxGeometry>
        </mxCell>
        <mxCell id="Nh4_O4x0VNbikzCYafz7-32" value="" style="endArrow=classic;html=1;exitX=0.5;exitY=1;exitDx=0;exitDy=0;" edge="1" parent="1" source="Nh4_O4x0VNbikzCYafz7-1">
          <mxGeometry width="50" height="50" relative="1" as="geometry">
            <mxPoint x="-200" y="890" as="sourcePoint" />
            <mxPoint x="-190" y="890" as="targetPoint" />
          </mxGeometry>
        </mxCell>
        <mxCell id="Nh4_O4x0VNbikzCYafz7-33" value="" style="endArrow=classic;html=1;exitX=0.5;exitY=1;exitDx=0;exitDy=0;" edge="1" parent="1" source="Nh4_O4x0VNbikzCYafz7-8">
          <mxGeometry width="50" height="50" relative="1" as="geometry">
            <mxPoint x="-20" y="880" as="sourcePoint" />
            <mxPoint x="-10" y="890" as="targetPoint" />
          </mxGeometry>
        </mxCell>
        <mxCell id="Nh4_O4x0VNbikzCYafz7-34" value="" style="endArrow=classic;html=1;exitX=0.5;exitY=1;exitDx=0;exitDy=0;" edge="1" parent="1" source="Nh4_O4x0VNbikzCYafz7-9">
          <mxGeometry width="50" height="50" relative="1" as="geometry">
            <mxPoint x="160" y="880" as="sourcePoint" />
            <mxPoint x="150" y="890" as="targetPoint" />
          </mxGeometry>
        </mxCell>
        <mxCell id="Nh4_O4x0VNbikzCYafz7-35" value="" style="endArrow=classic;html=1;exitX=0.5;exitY=1;exitDx=0;exitDy=0;" edge="1" parent="1" source="Nh4_O4x0VNbikzCYafz7-13">
          <mxGeometry width="50" height="50" relative="1" as="geometry">
            <mxPoint x="320" y="900" as="sourcePoint" />
            <mxPoint x="328" y="890" as="targetPoint" />
          </mxGeometry>
        </mxCell>
        <mxCell id="Nh4_O4x0VNbikzCYafz7-36" value="" style="endArrow=classic;html=1;exitX=0.5;exitY=1;exitDx=0;exitDy=0;" edge="1" parent="1" source="Nh4_O4x0VNbikzCYafz7-15">
          <mxGeometry width="50" height="50" relative="1" as="geometry">
            <mxPoint x="520" y="890" as="sourcePoint" />
            <mxPoint x="473" y="890" as="targetPoint" />
          </mxGeometry>
        </mxCell>
        <mxCell id="Nh4_O4x0VNbikzCYafz7-37" value="" style="endArrow=classic;html=1;exitX=0.5;exitY=1;exitDx=0;exitDy=0;" edge="1" parent="1" source="Nh4_O4x0VNbikzCYafz7-16">
          <mxGeometry width="50" height="50" relative="1" as="geometry">
            <mxPoint x="580" y="910" as="sourcePoint" />
            <mxPoint x="630" y="890" as="targetPoint" />
          </mxGeometry>
        </mxCell>
        <mxCell id="Nh4_O4x0VNbikzCYafz7-38" value="" style="endArrow=classic;html=1;exitX=0.5;exitY=1;exitDx=0;exitDy=0;" edge="1" parent="1" source="Nh4_O4x0VNbikzCYafz7-18">
          <mxGeometry width="50" height="50" relative="1" as="geometry">
            <mxPoint x="740" y="890" as="sourcePoint" />
            <mxPoint x="788" y="890" as="targetPoint" />
          </mxGeometry>
        </mxCell>
        <mxCell id="Nh4_O4x0VNbikzCYafz7-39" value="Ask user for type&amp;nbsp;&lt;br&gt;1 - Line Graph&amp;nbsp;&lt;br&gt;2 - Bar Graph&lt;br&gt;3 - Scatterplot&amp;nbsp;" style="rhombus;whiteSpace=wrap;html=1;rounded=1;" vertex="1" parent="1">
          <mxGeometry x="-430" y="890" width="160" height="110" as="geometry" />
        </mxCell>
        <mxCell id="Nh4_O4x0VNbikzCYafz7-40" value="Ask user for type&amp;nbsp;&lt;br&gt;1 - Line Graph&amp;nbsp;&lt;br&gt;2 - Bar Graph&lt;br&gt;3 - Scatterplot&amp;nbsp;" style="rhombus;whiteSpace=wrap;html=1;rounded=1;" vertex="1" parent="1">
          <mxGeometry x="-270" y="890" width="160" height="110" as="geometry" />
        </mxCell>
        <mxCell id="Nh4_O4x0VNbikzCYafz7-41" value="Ask user for type&amp;nbsp;&lt;br&gt;1 - Line Graph&amp;nbsp;&lt;br&gt;2 - Bar Graph&lt;br&gt;3 - Scatterplot&amp;nbsp;" style="rhombus;whiteSpace=wrap;html=1;rounded=1;" vertex="1" parent="1">
          <mxGeometry x="-90" y="890" width="160" height="110" as="geometry" />
        </mxCell>
        <mxCell id="Nh4_O4x0VNbikzCYafz7-42" value="Ask user for type&amp;nbsp;&lt;br&gt;1 - Line Graph&amp;nbsp;&lt;br&gt;2 - Bar Graph&lt;br&gt;3 - Scatterplot&amp;nbsp;" style="rhombus;whiteSpace=wrap;html=1;rounded=1;" vertex="1" parent="1">
          <mxGeometry x="70" y="890" width="160" height="110" as="geometry" />
        </mxCell>
        <mxCell id="Nh4_O4x0VNbikzCYafz7-43" value="Ask user for type&amp;nbsp;&lt;br&gt;1 - Line Graph&amp;nbsp;&lt;br&gt;2 - Bar Graph&lt;br&gt;3 - Scatterplot&amp;nbsp;" style="rhombus;whiteSpace=wrap;html=1;rounded=1;" vertex="1" parent="1">
          <mxGeometry x="247.5" y="890" width="160" height="110" as="geometry" />
        </mxCell>
        <mxCell id="Nh4_O4x0VNbikzCYafz7-44" value="Ask user for type&amp;nbsp;&lt;br&gt;1 - Line Graph&amp;nbsp;&lt;br&gt;2 - Bar Graph&lt;br&gt;3 - Scatterplot&amp;nbsp;" style="rhombus;whiteSpace=wrap;html=1;rounded=1;" vertex="1" parent="1">
          <mxGeometry x="395" y="890" width="160" height="110" as="geometry" />
        </mxCell>
        <mxCell id="Nh4_O4x0VNbikzCYafz7-45" value="Ask user for type&amp;nbsp;&lt;br&gt;1 - Line Graph&amp;nbsp;&lt;br&gt;2 - Bar Graph&lt;br&gt;3 - Scatterplot&amp;nbsp;" style="rhombus;whiteSpace=wrap;html=1;rounded=1;" vertex="1" parent="1">
          <mxGeometry x="552.5" y="890" width="160" height="110" as="geometry" />
        </mxCell>
        <mxCell id="Nh4_O4x0VNbikzCYafz7-46" value="Ask user for type&amp;nbsp;&lt;br&gt;1 - Line Graph&amp;nbsp;&lt;br&gt;2 - Bar Graph&lt;br&gt;3 - Scatterplot&amp;nbsp;" style="rhombus;whiteSpace=wrap;html=1;rounded=1;" vertex="1" parent="1">
          <mxGeometry x="712.5" y="890" width="160" height="110" as="geometry" />
        </mxCell>
        <mxCell id="Nh4_O4x0VNbikzCYafz7-47" value="Present user with their chosen display type" style="rounded=1;whiteSpace=wrap;html=1;" vertex="1" parent="1">
          <mxGeometry x="140" y="1160" width="200" height="90" as="geometry" />
        </mxCell>
        <mxCell id="Nh4_O4x0VNbikzCYafz7-48" value="" style="endArrow=classic;html=1;entryX=0.5;entryY=0;entryDx=0;entryDy=0;" edge="1" parent="1" target="Nh4_O4x0VNbikzCYafz7-47">
          <mxGeometry width="50" height="50" relative="1" as="geometry">
            <mxPoint x="238" y="1100" as="sourcePoint" />
            <mxPoint x="330" y="670" as="targetPoint" />
          </mxGeometry>
        </mxCell>
        <mxCell id="Nh4_O4x0VNbikzCYafz7-49" value="" style="endArrow=none;html=1;" edge="1" parent="1">
          <mxGeometry width="50" height="50" relative="1" as="geometry">
            <mxPoint x="-350" y="1100" as="sourcePoint" />
            <mxPoint x="790" y="1100" as="targetPoint" />
          </mxGeometry>
        </mxCell>
        <mxCell id="Nh4_O4x0VNbikzCYafz7-50" value="" style="endArrow=none;html=1;exitX=0.5;exitY=1;exitDx=0;exitDy=0;" edge="1" parent="1" source="Nh4_O4x0VNbikzCYafz7-39">
          <mxGeometry width="50" height="50" relative="1" as="geometry">
            <mxPoint x="280" y="720" as="sourcePoint" />
            <mxPoint x="-350" y="1100" as="targetPoint" />
          </mxGeometry>
        </mxCell>
        <mxCell id="Nh4_O4x0VNbikzCYafz7-51" value="" style="endArrow=none;html=1;exitX=0.5;exitY=1;exitDx=0;exitDy=0;" edge="1" parent="1" source="Nh4_O4x0VNbikzCYafz7-40">
          <mxGeometry width="50" height="50" relative="1" as="geometry">
            <mxPoint x="280" y="720" as="sourcePoint" />
            <mxPoint x="-190" y="1100" as="targetPoint" />
          </mxGeometry>
        </mxCell>
        <mxCell id="Nh4_O4x0VNbikzCYafz7-52" value="" style="endArrow=none;html=1;exitX=0.5;exitY=1;exitDx=0;exitDy=0;" edge="1" parent="1" source="Nh4_O4x0VNbikzCYafz7-41">
          <mxGeometry width="50" height="50" relative="1" as="geometry">
            <mxPoint x="280" y="720" as="sourcePoint" />
            <mxPoint x="-10" y="1100" as="targetPoint" />
          </mxGeometry>
        </mxCell>
        <mxCell id="Nh4_O4x0VNbikzCYafz7-53" value="" style="endArrow=none;html=1;exitX=0.5;exitY=1;exitDx=0;exitDy=0;" edge="1" parent="1" source="Nh4_O4x0VNbikzCYafz7-42">
          <mxGeometry width="50" height="50" relative="1" as="geometry">
            <mxPoint x="280" y="720" as="sourcePoint" />
            <mxPoint x="150" y="1100" as="targetPoint" />
          </mxGeometry>
        </mxCell>
        <mxCell id="Nh4_O4x0VNbikzCYafz7-54" value="" style="endArrow=none;html=1;exitX=0.5;exitY=1;exitDx=0;exitDy=0;" edge="1" parent="1" source="Nh4_O4x0VNbikzCYafz7-43">
          <mxGeometry width="50" height="50" relative="1" as="geometry">
            <mxPoint x="280" y="720" as="sourcePoint" />
            <mxPoint x="328" y="1100" as="targetPoint" />
          </mxGeometry>
        </mxCell>
        <mxCell id="Nh4_O4x0VNbikzCYafz7-55" value="" style="endArrow=none;html=1;exitX=0.5;exitY=1;exitDx=0;exitDy=0;" edge="1" parent="1" source="Nh4_O4x0VNbikzCYafz7-44">
          <mxGeometry width="50" height="50" relative="1" as="geometry">
            <mxPoint x="280" y="720" as="sourcePoint" />
            <mxPoint x="475" y="1100" as="targetPoint" />
          </mxGeometry>
        </mxCell>
        <mxCell id="Nh4_O4x0VNbikzCYafz7-56" value="" style="endArrow=none;html=1;exitX=0.5;exitY=1;exitDx=0;exitDy=0;" edge="1" parent="1" source="Nh4_O4x0VNbikzCYafz7-45">
          <mxGeometry width="50" height="50" relative="1" as="geometry">
            <mxPoint x="280" y="720" as="sourcePoint" />
            <mxPoint x="633" y="1100" as="targetPoint" />
          </mxGeometry>
        </mxCell>
        <mxCell id="Nh4_O4x0VNbikzCYafz7-57" value="" style="endArrow=none;html=1;exitX=0.5;exitY=1;exitDx=0;exitDy=0;" edge="1" parent="1" source="Nh4_O4x0VNbikzCYafz7-46">
          <mxGeometry width="50" height="50" relative="1" as="geometry">
            <mxPoint x="280" y="720" as="sourcePoint" />
            <mxPoint x="793" y="1100" as="targetPoint" />
          </mxGeometry>
        </mxCell>
        <mxCell id="Nh4_O4x0VNbikzCYafz7-58" value="STOP" style="ellipse;whiteSpace=wrap;html=1;" vertex="1" parent="1">
          <mxGeometry x="180" y="1340" width="120" height="80" as="geometry" />
        </mxCell>
        <mxCell id="Nh4_O4x0VNbikzCYafz7-59" value="" style="endArrow=classic;html=1;exitX=0.5;exitY=1;exitDx=0;exitDy=0;entryX=0.5;entryY=0;entryDx=0;entryDy=0;" edge="1" parent="1" source="Nh4_O4x0VNbikzCYafz7-47" target="Nh4_O4x0VNbikzCYafz7-58">
          <mxGeometry width="50" height="50" relative="1" as="geometry">
            <mxPoint x="280" y="1290" as="sourcePoint" />
            <mxPoint x="330" y="1240" as="targetPoint" />
          </mxGeometry>
        </mxCell>
      </root>
    </mxGraphModel>
  </diagram>
</mxfile>
